PathFileType	4	(X/Y/Z)	C:/Users/beibeiliu/ov580/test_trc\sequence.30_training_dense_left.trc
DataRate	CameraRate	NumFrames	NumMarkers	Units	OrigDataRate	OrigDataStartFrame	OrigNumFrames
120	120	19	19	mm	120	178	354
Frame#	Time	ThumbCMC			ThumbMCP			ThumbIP			ThumbTip			IndexMCP			IndexPIP			IndexTip			MiddleMCP			MiddlePIP			MiddleTip			RingMCP			RingPIP			RingTip			PinkyMCP			PinkyPIP			PinkyTip			BackHand1			BackHand2			BackHand3	
		X0	Y0	Z0	X1	Y1	Z1	X2	Y2	Z2	X3	Y3	Z3	X4	Y4	Z4	X5	Y5	Z5	X6	Y6	Z6	X7	Y7	Z7	X8	Y8	Z8	X9	Y9	Z9	X10	Y10	Z10	X11	Y11	Z11	X12	Y12	Z12	X13	Y13	Z13	X14	Y14	Z14	X15	Y15	Z15	X16	Y16	Z16	X17	Y17	Z17	X18	Y18	Z18	
177	1.475	-296.166	3.7977	62.7579	-309.71	11.5623	41.349	-318.899	12.0089	24.7816	-330.324	12.8762	4.78251	-295.662	-11.4245	-6.94908	-293.708	-4.88618	-28.8139	-295.933	8.81568	-51.2885	-272.023	-1.51157	-9.94407	-269.868	30.3752	-17.3195	-268.71	41.3607	10.8182	-256.592	-9.15095	-10.3927	-253.505	3.06842	-29.5845	-257.427	25.2954	-45.8798	-232.13	-13.4647	8.42192	-227.842	-15.4968	-11.7161	-223.595	-20.2334	-32.4235	-251.569	-23.3016	36.1047	-247.168	-21.5201	65.4848	-276.634	-22.385	53.9297	
178	1.48333	-295.634	4.87569	62.1143	-304.473	10.3967	39.7168	-321.754	12.8064	22.0525	-331.685	16.3912	7.67075	-294.272	-9.47405	-3.57824	-290.527	-3.66532	-28.6686	-293.881	11.3361	-52.4117	-275.148	2.68634	-13.3238	-271.574	32.5852	-13.9909	-270.592	39.6226	15.7222	-255.876	-8.52003	-8.80348	-251.038	6.66668	-31.3467	-257.809	26.0198	-43.9251	-231.01	-13.9686	4.57454	-230.92	-13.8043	-10.7217	-227.171	-18.7279	-31.5714	-249.346	-21.8176	37.0708	-251.797	-22.7929	62.8071	-278.812	-21.6923	53.9067	
179	1.49167	-293.998	6.08238	63.4266	-305.472	13.741	44.0421	-317.599	14.1409	21.6685	-327.39	17.5544	8.50057	-291.376	-9.20031	-8.47491	-293.304	-3.29478	-27.0604	-287.057	9.56277	-48.1287	-273.445	1.36808	-10.4214	-269.961	30.3607	-15.7511	-267.632	38.0842	16.4125	-249.86	-7.4626	-7.92253	-252.68	6.0279	-28.3992	-254.929	28.2083	-42.874	-229.983	-13.5926	4.10305	-229.507	-14.4983	-13.6356	-224.65	-18.0765	-30.2265	-249.174	-21.3677	39.9977	-251.273	-20.0379	65.8799	-276.084	-20.5088	55.18	
180	1.5	-292.71	5.10415	61.0184	-305.381	14.3368	43.3268	-320.877	14.7352	19.5302	-329.514	17.5459	3.76019	-287.279	-9.94867	-4.19907	-287.055	-1.0299	-30.3531	-289.296	11.9441	-50.2347	-272.546	4.75144	-12.6615	-269.148	34.2652	-11.6119	-268.822	36.46	20.3189	-249.672	-6.62531	-12.4018	-253.528	5.79301	-27.8621	-253.283	28.8792	-42.2991	-233.56	-13.5385	3.37447	-229.508	-14.6295	-11.7537	-224.615	-19.0688	-28.6077	-253.539	-22.2213	37.9677	-249.017	-23.977	61.5714	-273.058	-19.1755	53.3489	
181	1.50833	-290.862	4.20986	59.5109	-308.55	13.6505	39.6015	-319.918	15.881	23.5367	-331.072	18.4296	6.72857	-289.099	-9.52909	-9.16889	-287.079	-1.55387	-27.4225	-289.311	14.6364	-51.7678	-269.443	4.11153	-10.9064	-270.077	32.8168	-12.1955	-267.291	34.3127	24.0045	-248.112	-6.47017	-7.34964	-251.505	10.804	-30.7794	-253.058	28.5887	-40.102	-228.631	-11.8525	7.79915	-230.517	-13.7911	-13.9779	-223.085	-18.9433	-30.242	-251.801	-22.0798	38.4516	-247.161	-21.0886	65.4434	-272.731	-21.3009	49.1545	
182	1.51667	-289.697	4.90009	62.7953	-306.545	14.283	40.4393	-320.184	16.7842	21.8282	-330.469	20.4947	10.5191	-288.222	-9.88004	-5.7196	-287.351	-1.58863	-27.2528	-286.502	13.2509	-51.059	-270.097	4.88607	-10.5305	-266.768	36.3733	-6.42242	-266.22	35.5585	22.3776	-253.362	-4.42965	-10.8301	-251.492	11.1562	-29.5043	-251.186	33.4043	-42.0181	-229.878	-12.5601	4.80124	-224.462	-12.9334	-9.21076	-221.531	-17.1327	-30.4087	-248.192	-20.7053	39.0787	-248.086	-21.5804	66.4113	-273.139	-20.5033	52.5449	
183	1.525	-289.5	3.39921	61.478	-306.501	14.876	41.4694	-319.469	16.8421	24.1388	-327.711	19.1127	6.98804	-285.431	-9.86006	-7.15096	-288.794	0.546538	-31.7706	-288.051	11.8382	-48.8595	-267.148	3.17385	-8.34435	-266.876	36.4755	-5.32458	-268.044	32.5316	26.1978	-250.71	-5.1374	-8.29745	-248.835	11.1856	-29.524	-252.997	29.9276	-39.8443	-229.27	-11.8815	7.52572	-229.115	-12.2083	-11.9342	-225.092	-19.3034	-26.1106	-251.469	-20.7271	42.034	-245.302	-22.8308	65.8165	-272.495	-21.0103	54.8912	
184	1.53333	-292.708	2.80377	59.8658	-306.506	14.8634	42.4942	-317.18	16.8699	24.1132	-327.993	20.2956	12.6049	-286.401	-10.0105	-4.69521	-287.588	-1.2909	-26.0366	-284.195	10.3593	-46.6547	-267.463	6.6263	-10.5052	-270.315	33.9293	-8.68179	-270.132	34.0812	24.5451	-249.581	-4.91062	-10.6274	-252.016	9.97915	-27.5182	-252.948	31.6201	-41.1027	-230.616	-12.4622	5.40696	-230.213	-13.2926	-11.6588	-222.637	-17.4762	-26.094	-250.113	-22.1584	40.5221	-248.2	-20.2568	66.8374	-274.275	-21.7064	52.5928	
185	1.54167	-292.758	4.22529	61.7685	-306.378	14.0797	41.9188	-320.125	15.6981	23.8675	-329.661	18.863	9.94958	-288.087	-9.75313	-6.74226	-287.29	-1.83445	-25.8946	-285.275	10.2692	-45.9985	-272.855	4.40269	-9.63451	-268.473	32.7663	-7.40635	-269.214	32.4245	24.3273	-251.849	-5.91734	-5.37466	-254.411	7.2282	-25.6828	-255.193	29.6268	-38.6778	-234.787	-11.4263	9.48487	-227.989	-12.5487	-11.9565	-226.064	-16.4748	-26.1787	-251.782	-22.2601	41.092	-251.181	-20.8875	64.3468	-276.27	-21.1914	53.1031	
186	1.55	-295.879	3.13697	63.3691	-307.648	13.8529	42.7856	-322.5	17.4238	27.3772	-330.992	20.1609	14.5816	-288.539	-10.1439	-2.23453	-288.619	-0.969217	-29.8021	-287.858	9.02667	-45.5851	-269.087	2.10681	-6.3023	-270.796	34.2021	-5.34953	-270.336	32.1829	25.7925	-254.127	-4.75289	-9.17983	-251.655	9.79728	-27.7963	-252.951	31.7293	-40.4821	-229.873	-11.7532	6.33554	-231.28	-12.4357	-9.22362	-228.567	-18.3326	-28.9904	-246.792	-21.3461	42.5204	-249.463	-23.2922	65.3293	-276.836	-21.1488	56.8355	
187	1.55833	-290.739	2.33708	63.1514	-304.371	12.4593	43.9723	-321.615	15.9575	26.9181	-333.601	17.8338	14.5523	-288.537	-10.9487	-5.4502	-291.115	-4.74297	-24.8871	-288.992	9.75002	-49.2412	-273.969	4.26625	-8.83406	-269.015	33.2775	-6.53542	-270.004	32.2094	24.4834	-255.717	-5.9059	-9.11226	-255.74	8.74491	-26.9339	-254.857	26.6628	-38.6918	-230.145	-12.3768	6.29098	-227.886	-13.4116	-9.5899	-225.55	-18.35	-27.0334	-253.016	-21.0235	38.7213	-246.844	-21.6469	64.6028	-272.746	-23.1886	52.7957	
188	1.56667	-293.045	1.54303	63.0901	-308.201	11.6363	43.2164	-322.454	13.6023	26.076	-333.223	16.2955	11.558	-289.987	-12.3528	-4.26114	-291.871	-5.27376	-25.3004	-287.843	7.91416	-48.1908	-269.427	0.282844	-6.48969	-271.118	31.4916	-7.57131	-272.904	28.8607	27.7052	-252.005	-7.20193	-8.28906	-252.463	8.10495	-28.154	-256.32	28.9427	-39.9757	-232.629	-13.6216	4.18103	-227.663	-13.7649	-7.70679	-223.113	-18.7231	-24.1491	-248.158	-24.6308	37.9658	-248.049	-22.976	68.499	-274.128	-24.5052	51.875	
189	1.575	-293.464	0.92604	62.1589	-304.349	9.47168	41.4316	-322.361	13.7623	27.8273	-336.464	15.7857	13.1641	-292.598	-13.867	-1.74626	-292.34	-6.19031	-26.6557	-291.269	5.09444	-46.899	-272.229	-0.639326	-7.52162	-268.961	29.9004	-8.92564	-269.288	28.5705	25.6857	-256.221	-8.61592	-9.12931	-251.948	8.2126	-30.0895	-256.654	28.3912	-41.4101	-231.877	-15.774	5.08915	-231.514	-14.9834	-8.89713	-226.018	-22.1005	-27.1174	-252.548	-25.2026	43.3548	-248.702	-25.2228	68.9049	-276.86	-22.5667	54.5454	
190	1.58333	-296.427	0.13024	62.9094	-309.362	8.98989	41.3312	-324.046	11.0278	25.6936	-336.792	13.1472	14.8494	-290.614	-14.5687	-1.12663	-287.307	-7.65052	-24.4946	-288.637	4.43661	-48.8549	-272.18	-1.02456	-8.40366	-272.359	30.4468	-7.16396	-269.482	29.0749	24.4595	-250.731	-10.1605	-5.75913	-255.195	4.42878	-27.3741	-253.691	25.1203	-41.2582	-234.227	-15.2271	10.1115	-231.452	-17.2475	-9.89423	-226.856	-25.7081	-28.2339	-249.478	-24.7031	38.0495	-248.058	-25.3213	64.2771	-277.849	-23.915	57.6199	
191	1.59167	-293.74	-1.97273	61.2551	-307.354	8.18553	45.5228	-321.118	9.9569	29.571	-334.069	10.7105	13.6759	-290.221	-15.6297	-2.71788	-289.285	-9.62988	-26.985	-286.027	1.52212	-46.818	-272.489	-2.73649	-7.96478	-268.982	26.764	-9.86366	-271.245	27.6574	25.5071	-257.326	-11.5188	-8.27212	-253.73	3.85137	-28.1406	-254.494	22.9537	-40.5802	-236.761	-16.7521	8.16076	-231.292	-19.4026	-7.62387	-228.807	-24.9794	-28.8566	-250.545	-27.2946	39.9704	-249.404	-26.9872	64.5889	-273.894	-25.2136	57.1507	
192	1.6	-297.567	-1.92685	64.5419	-310.243	5.86492	44.0939	-321.563	6.47154	26.4866	-338.732	10.4039	14.4578	-291.286	-18.4134	-4.51088	-286.944	-11.4645	-23.6375	-290.011	1.17289	-48.1688	-272.689	-6.21229	-5.79272	-269.362	23.9743	-9.05185	-271.067	28.197	23.3978	-253.945	-12.3947	-6.81155	-254.892	1.50893	-28.0209	-260.601	21.4846	-41.0494	-232.351	-17.8154	10.5442	-229.566	-20.436	-5.80698	-225.866	-27.6301	-24.0004	-251.301	-26.9213	43.9039	-252.633	-26.4566	70.5504	-276.699	-26.5886	57.5126	
193	1.60833	-297.615	-3.98349	66.9107	-306.428	5.47125	44.0181	-322.019	5.53084	25.1189	-337.89	9.17674	17.285	-291.8	-19.4255	-5.03145	-291.247	-11.4852	-25.1682	-287.106	-0.375384	-47.2004	-274.366	-4.09049	-8.69565	-271.052	22.8421	-9.61387	-271.273	26.2456	23.5977	-253.468	-13.2911	-7.60347	-256.578	0.769313	-27.1809	-258.066	17.0441	-38.907	-237.324	-18.3673	11.9604	-230.286	-21.4717	-5.80988	-226.181	-29.6425	-26.1171	-250.38	-28.0804	40.3301	-247.934	-30.3173	68.9477	-278.43	-28.5122	56.9185	
194	1.61667	-295.341	-5.23687	62.6997	-309.119	4.41563	44.21	-319.956	6.92349	28.5123	-334.742	7.11686	13.3097	-290.824	-19.5987	-3.10239	-291.367	-10.8606	-27.6324	-291.809	-2.02336	-44.5741	-275.662	-6.4992	-7.13852	-272.89	24.1462	-7.76097	-271.501	26.6145	22.5384	-254.45	-15.3967	-3.56872	-255.279	-2.05262	-24.8698	-260.432	19.7671	-40.9344	-235.979	-19.3984	11.9401	-233.267	-22.1772	-9.10504	-229.902	-30.0864	-25.4458	-250.659	-28.9724	43.5532	-250.079	-27.9486	69.3359	-275.912	-29.5332	59.0935	
195	1.625	-295.554	-3.24128	65.9131	-306.912	5.9318	45.6229	-322.872	6.49822	27.2681	-335.073	11.3696	16.7581	-293.305	-20.1639	-0.665529	-290.855	-11.467	-28.0124	-290.509	-0.24293	-46.1001	-275.009	-6.7358	-8.81153	-270.717	21.1862	-12.0881	-274.665	25.6433	23.6585	-253.441	-15.2728	-4.05303	-254.563	-2.64978	-25.4911	-258.141	15.4211	-39.6455	-237.352	-20.5819	8.94441	-236.031	-23.012	-5.79569	-233.316	-30.2733	-27.0052	-253.324	-30.7456	42.1155	-252.921	-29.7281	65.9205	-277.952	-30.6683	53.9929	
